<svg width="208" height="42" viewBox="0 0 208 42" fill="none" xmlns="http://www.w3.org/2000/svg">
<rect x="0.5" y="0.5" width="206.503" height="41" rx="4.5" stroke="#7B61FF" stroke-dasharray="10 5"/>
<path d="M31.352 13.6847C30.0187 13.0942 28.6842 12.8695 27.3505 12.8695C23.1166 12.8691 18.883 15.1322 14.6491 15.1322C13.5873 15.1322 12.5262 14.99 11.4644 14.6342C11.3451 14.5943 11.2254 14.5754 11.1086 14.5754C10.517 14.5754 10 15.0589 10 15.73V27.2455C10 27.7039 10.2485 28.1384 10.6476 28.3148C11.981 28.9057 13.3154 29.1304 14.6491 29.1304C18.883 29.1304 23.117 26.8673 27.3509 26.8673C28.4127 26.8673 29.4738 27.0096 30.5356 27.3653C30.6549 27.4052 30.7745 27.4241 30.8914 27.4241C31.483 27.4241 32 26.9406 32 26.2695V14.7544C31.9997 14.2956 31.7511 13.8615 31.352 13.6847ZM11.65 16.5072C12.3416 16.6901 13.0635 16.7819 13.8059 16.8313C13.6038 17.898 12.7156 18.702 11.65 18.702V16.5072ZM11.65 26.8517V25.1174C12.8314 25.1174 13.7874 26.1072 13.84 27.346C13.0655 27.2803 12.3416 27.117 11.65 26.8517ZM20.9998 24.4844C19.4808 24.4844 18.2499 22.924 18.2499 20.9999C18.2499 19.0755 19.4812 17.5155 20.9998 17.5155C22.5185 17.5155 23.7498 19.0755 23.7498 20.9999C23.7498 22.9247 22.5181 24.4844 20.9998 24.4844ZM30.3497 25.4927C29.7474 25.3334 29.1222 25.2441 28.4825 25.1864C28.6842 24.2398 29.4278 23.5211 30.3497 23.3977V25.4927ZM30.3497 16.9227C29.2879 16.7808 28.4639 15.8447 28.4312 14.6887C29.1029 14.7675 29.7406 14.9148 30.3497 15.1482V16.9227Z" fill="#0065FC"/>
<path d="M44.25 26.0625C44.25 26.3719 44.5017 26.625 44.8125 26.625H58.875C59.4973 26.625 60 27.1277 60 27.75C60 28.3723 59.4973 28.875 58.875 28.875H44.8125C43.2593 28.875 42 27.6164 42 26.0625V14.25C42 13.6288 42.5038 13.125 43.125 13.125C43.7462 13.125 44.25 13.6288 44.25 14.25V26.0625ZM54.0445 21.7945C53.6051 22.234 52.8949 22.234 52.4555 21.7945L50.4375 19.7801L47.2945 22.9195C46.8551 23.359 46.1449 23.359 45.7055 22.9195C45.2653 22.4801 45.2653 21.7699 45.7055 21.3305L49.643 17.393C50.0824 16.9535 50.7926 16.9535 51.232 17.393L53.25 19.4074L56.9555 15.7055C57.3949 15.2653 58.1051 15.2653 58.5445 15.7055C58.984 16.1449 58.984 16.8551 58.5445 17.2945L54.0445 21.7945Z" fill="#0065FC"/>
<path d="M81.1595 17.6971L85.6502 18.3596C86.022 18.4127 86.3345 18.6752 86.4533 19.0346C86.572 19.3971 86.4752 19.7909 86.2064 20.0596L82.9502 23.2534L83.7189 27.8346C83.7814 28.2096 83.6283 28.5909 83.3158 28.8127C83.0064 29.0346 82.597 29.0627 82.2627 28.8846L78.2502 26.744L74.2408 28.8846C73.9033 29.0627 73.4939 29.0346 73.1845 28.8127C72.8752 28.5909 72.7189 28.2096 72.7845 27.8346L73.5533 23.2534L70.2964 20.0596C70.0273 19.7909 69.9317 19.3971 70.0498 19.0346C70.1677 18.6752 70.4792 18.4127 70.8539 18.3596L75.3408 17.6971L77.3533 13.5618C77.5189 13.2176 77.8689 12.999 78.2502 12.999C78.6345 12.999 78.9845 13.2176 79.1502 13.5618L81.1595 17.6971Z" fill="#0065FC"/>
<path d="M96.5033 18.2283V17.9854C96.5033 15.0586 98.6741 12.5622 101.634 12.0816C103.554 11.7637 105.587 12.386 106.988 13.7531L107.503 14.2547L107.98 13.7531C109.42 12.386 111.413 11.7637 113.373 12.0816C116.333 12.5622 118.503 15.0586 118.503 17.9854V18.2283C118.503 19.966 117.764 21.6283 116.458 22.8132L108.694 29.8769C108.371 30.17 107.946 30.3333 107.503 30.3333C107.061 30.3333 106.635 30.17 106.313 29.8769L98.5482 22.8132C97.2436 21.6283 96.5033 19.966 96.5033 18.2283H96.5033Z" fill="#0065FC"/>
<path d="M132.67 26.1693H131.837V19.6068C131.837 19.0885 131.463 18.6693 131.003 18.6693H129.337C128.876 18.6693 128.503 19.0885 128.503 19.6068C128.503 20.125 128.876 20.5179 129.337 20.5179H130.17V26.1429H129.337C128.876 26.1429 128.503 26.5621 128.503 27.0804C128.503 27.5987 128.876 28.0179 129.337 28.0179H132.67C133.13 28.0179 133.503 27.5987 133.503 27.0804C133.503 26.5621 133.131 26.1693 132.67 26.1693ZM131.003 16.7943C131.694 16.7943 132.253 16.1647 132.253 15.388C132.253 14.6114 131.693 13.9821 131.003 13.9821C130.313 13.9821 129.753 14.6116 129.753 15.3883C129.753 16.165 130.313 16.7943 131.003 16.7943Z" fill="#0065FC"/>
<path d="M156.243 12.0625C156.243 13.2016 155.34 14.125 154.226 14.125C153.113 14.125 152.209 13.2016 152.209 12.0625C152.209 10.9234 153.113 10 154.226 10C155.34 10 156.243 10.9234 156.243 12.0625ZM153.89 25.125V30.625C153.89 31.3855 153.289 32 152.545 32C151.802 32 151.201 31.3855 151.201 30.625V21.0387L150 23.084C149.618 23.7328 148.792 23.9434 148.156 23.5523C147.519 23.1613 147.313 22.3191 147.696 21.666L150.144 17.5023C150.873 16.2605 152.184 15.5 153.6 15.5H154.852C156.268 15.5 157.579 16.2605 158.31 17.5023L160.755 21.666C161.138 22.3191 160.932 23.1613 160.297 23.5523C159.659 23.9434 158.835 23.7328 158.453 23.084L157.251 21.0387V30.625C157.251 31.3855 156.65 32 155.907 32C155.163 32 154.562 31.3855 154.562 30.625V25.125H153.89Z" fill="#0065FC"/>
<path d="M184.401 11.2127C184.714 10.9265 185.2 10.9304 185.514 11.2166C186.622 12.2322 187.663 13.3262 188.635 14.5104C189.077 13.9457 189.58 13.3301 190.122 12.8282C190.439 12.5381 190.93 12.5381 191.247 12.8321C192.637 14.1261 193.814 15.8357 194.642 17.459C195.458 19.0588 196 20.6939 196 21.8467C196 26.85 191.99 31.0769 187 31.0769C181.954 31.0769 178 26.8461 178 21.8428C178 20.3371 178.715 18.4981 179.824 16.6787C180.945 14.8319 182.528 12.9066 184.401 11.2127ZM187.068 27.3127C188.085 27.3127 188.985 27.0382 189.833 26.4893C191.524 25.3365 191.978 23.0309 190.962 21.2193C190.781 20.8664 190.319 20.8429 190.058 21.1409L189.045 22.2898C188.78 22.5878 188.302 22.5799 188.053 22.2702C187.39 21.4468 186.205 19.9763 185.53 19.1412C185.276 18.8275 184.794 18.8235 184.537 19.1372C183.179 20.8037 182.496 21.8545 182.496 23.0348C182.5 25.7207 184.533 27.3127 187.068 27.3127Z" fill="#0065FC"/>
</svg>
